<?xml version="1.0" standalone="no"?>
<!DOCTYPE svg PUBLIC "-//W3C//DTD SVG 20010904//EN"
 "http://www.w3.org/TR/2001/REC-SVG-20010904/DTD/svg10.dtd">
<svg version="1.0" xmlns="http://www.w3.org/2000/svg"
 width="300.000000pt" height="400.000000pt" viewBox="0 0 300.000000 400.000000"
 preserveAspectRatio="xMidYMid meet">
<metadata>
Created by potrace 1.10, written by Peter Selinger 2001-2011
</metadata>
<g transform="translate(0.000000,400.000000) scale(0.100000,-0.100000)"
fill="#000000" stroke="none">
<path d="M439 3737 c-44 -29 -69 -80 -69 -140 0 -97 49 -157 127 -157 l45 0
-7 -52 c-10 -79 -23 -98 -101 -149 -88 -58 -167 -139 -217 -221 -77 -127 -71
-36 -75 -1258 -2 -699 1 -1122 7 -1171 20 -154 79 -253 193 -328 122 -81 56
-76 1118 -76 987 0 1000 0 1085 43 96 47 186 146 215 237 7 22 18 46 24 54 16
20 16 2342 0 2362 -6 8 -17 32 -24 53 -35 110 -133 225 -257 302 -78 49 -99
80 -104 154 l-4 45 47 5 c78 9 128 71 128 157 0 60 -25 111 -69 140 l-34 23
-997 0 -997 0 -34 -23z"/>
</g>
</svg>